<svg width="243" height="203" viewBox="0 0 243 203" fill="none" xmlns="http://www.w3.org/2000/svg">
<path d="M180 87L96.94 170.08C96.4165 170.609 95.7935 171.028 95.107 171.314C94.4204 171.601 93.6839 171.748 92.94 171.748C92.1962 171.748 91.4597 171.601 90.7731 171.314C90.0865 171.028 89.4635 170.609 88.94 170.08L77.67 158.77L164.67 71.77L150.59 57.63L63.59 144.63L24 105.12C23.4727 104.596 23.0543 103.973 22.7687 103.286C22.4832 102.6 22.3362 101.863 22.3362 101.12C22.3362 100.377 22.4832 99.6403 22.7687 98.9539C23.0543 98.2674 23.4727 97.6442 24 97.12L107.05 14.12L93 0L6.00002 87L5.86002 87.14C4.02468 88.9741 2.56873 91.1519 1.57538 93.549C0.582024 95.946 0.0707397 98.5153 0.0707397 101.11C0.0707397 103.705 0.582024 106.274 1.57538 108.671C2.56873 111.068 4.02468 113.246 5.86002 115.08L6.00002 115.23L49.52 158.74L63.63 172.85L78.92 188.14L79.06 188.29C82.7668 191.992 87.7913 194.071 93.03 194.071C98.2687 194.071 103.293 191.992 107 188.29L194.17 101.11L180 87Z" fill="#455A64"/>
<path d="M163.72 14.7L163.58 14.56C161.746 12.7247 159.568 11.2687 157.171 10.2754C154.774 9.282 152.205 8.77072 149.61 8.77072C147.015 8.77072 144.446 9.282 142.049 10.2754C139.652 11.2687 137.474 12.7247 135.64 14.56L135.5 14.7L48.5 101.7L62.61 115.81L145.66 32.76C146.184 32.2327 146.807 31.8142 147.494 31.5287C148.18 31.2431 148.917 31.0961 149.66 31.0961C150.403 31.0961 151.14 31.2431 151.826 31.5287C152.513 31.8142 153.136 32.2327 153.66 32.76L218.61 97.76C219.139 98.2835 219.558 98.9065 219.844 99.5931C220.131 100.28 220.278 101.016 220.278 101.76C220.278 102.504 220.131 103.24 219.844 103.927C219.558 104.614 219.139 105.237 218.61 105.76L135.61 188.81L149.72 202.92L236.72 115.92L236.86 115.78C238.695 113.946 240.151 111.768 241.145 109.371C242.138 106.974 242.649 104.405 242.649 101.81C242.649 99.2153 242.138 96.646 241.145 94.249C240.151 91.8519 238.695 89.6741 236.86 87.84L163.72 14.7Z" fill="#00B8D4"/>
</svg>
